<?xml version="1.0" standalone="no"?>
<!DOCTYPE svg PUBLIC "-//W3C//DTD SVG 20010904//EN"
 "http://www.w3.org/TR/2001/REC-SVG-20010904/DTD/svg10.dtd">
<svg version="1.0" xmlns="http://www.w3.org/2000/svg"
 width="512.000000pt" height="512.000000pt" viewBox="0 0 512.000000 512.000000"
 preserveAspectRatio="xMidYMid meet">

<g transform="translate(0.000000,512.000000) scale(0.100000,-0.100000)"
fill="#000000" stroke="none">
<path d="M1291 5109 c-39 -12 -121 -65 -121 -78 0 -5 -23 -17 -51 -27 -101
-37 -163 -126 -162 -234 0 -72 17 -116 64 -165 l29 -31 -65 -67 c-103 -108
-144 -212 -145 -368 0 -145 47 -256 155 -364 130 -130 308 -181 484 -140 176
42 333 191 385 365 18 61 21 202 5 270 -18 81 -68 168 -134 237 l-65 67 29 31
c47 49 64 93 64 165 1 48 -5 76 -21 107 -29 57 -83 107 -132 123 -21 7 -55 28
-75 45 -19 18 -51 40 -71 50 -44 21 -128 28 -173 14z m120 -156 c16 -10 29
-20 29 -24 0 -20 51 -57 86 -62 55 -9 87 -44 87 -98 0 -31 -7 -47 -27 -67
l-26 -27 -200 0 -200 0 -26 27 c-20 20 -27 36 -27 67 0 53 32 89 86 98 38 6
64 23 83 55 14 23 57 48 82 48 13 0 37 -8 53 -17z m43 -448 c116 -30 214 -119
256 -233 31 -81 25 -204 -12 -285 -50 -107 -156 -187 -278 -209 -156 -29 -329
61 -398 209 -37 81 -43 204 -12 285 28 75 77 138 144 182 93 62 193 79 300 51z"/>
<path d="M2515 5101 c-16 -10 -66 -55 -110 -100 l-80 -81 -91 0 c-77 0 -95 -3
-118 -21 -36 -28 -34 -54 17 -240 l43 -156 -23 -29 c-71 -86 -113 -209 -113
-329 0 -152 46 -261 155 -370 206 -205 524 -205 730 0 109 109 155 218 155
370 0 120 -42 243 -113 329 l-23 29 43 156 c51 186 53 212 17 240 -23 18 -41
21 -118 21 l-91 0 -85 86 c-82 82 -124 114 -152 114 -7 0 -26 -9 -43 -19z
m131 -251 l84 -80 65 0 c58 0 66 -2 61 -17 -2 -10 -12 -46 -22 -81 -13 -50
-21 -62 -33 -58 -9 3 -43 15 -76 28 -48 18 -81 22 -165 22 -84 0 -117 -4 -165
-22 -33 -13 -67 -25 -76 -28 -12 -4 -20 8 -33 58 -10 35 -20 71 -22 81 -5 15
3 17 61 17 l66 0 82 80 c45 44 84 80 86 80 2 0 41 -36 87 -80z m26 -351 c75
-25 136 -66 177 -118 32 -40 70 -116 71 -138 1 -45 -256 37 -374 120 -50 34
-136 109 -136 117 0 9 47 26 90 33 59 10 115 6 172 -14z m-329 -165 c147 -134
344 -230 522 -252 69 -9 70 -11 30 -99 -64 -142 -235 -233 -389 -206 -126 21
-233 101 -284 210 -37 80 -43 204 -13 282 18 47 60 121 69 121 2 0 32 -25 65
-56z"/>
<path d="M3691 5109 c-39 -12 -121 -65 -121 -78 0 -5 -23 -17 -51 -27 -101
-37 -163 -126 -162 -234 0 -72 17 -116 64 -165 l29 -31 -65 -67 c-103 -108
-144 -212 -145 -368 0 -145 47 -256 155 -364 130 -130 308 -181 484 -140 176
42 333 191 385 365 18 61 21 202 5 270 -18 81 -68 168 -134 237 l-65 67 29 31
c47 49 64 93 64 165 1 48 -5 76 -21 107 -29 57 -83 107 -132 123 -21 7 -55 28
-75 45 -19 18 -51 40 -71 50 -44 21 -128 28 -173 14z m120 -156 c16 -10 29
-20 29 -24 0 -20 51 -57 86 -62 55 -9 87 -44 87 -98 0 -31 -7 -47 -27 -67
l-26 -27 -200 0 -200 0 -26 27 c-20 20 -27 36 -27 67 0 53 32 89 86 98 38 6
64 23 83 55 14 23 57 48 82 48 13 0 37 -8 53 -17z m60 -453 c35 -11 75 -29 89
-40 24 -18 24 -19 6 -33 -94 -69 -318 -69 -412 0 -18 14 -18 15 6 34 36 28
137 58 196 58 29 1 80 -8 115 -19z m-378 -210 c66 -37 192 -70 267 -70 76 0
201 33 267 70 30 17 58 28 63 25 23 -14 42 -108 38 -188 -8 -180 -128 -316
-308 -349 -156 -29 -329 61 -398 209 -24 51 -27 70 -27 158 0 73 5 110 17 138
9 20 20 37 23 37 3 0 29 -13 58 -30z"/>
<path d="M272 4658 c-38 -19 -44 -71 -40 -353 3 -256 3 -261 28 -310 18 -34
41 -60 72 -80 l47 -30 0 -157 1 -158 -59 0 c-76 0 -151 -37 -195 -98 -29 -41
-31 -50 -31 -127 0 -77 2 -86 31 -127 19 -26 53 -54 84 -70 l52 -28 284 0 284
0 0 -302 c0 -289 -1 -304 -21 -333 -40 -59 -82 -151 -101 -220 -16 -59 -20
-117 -25 -355 -6 -314 -1 -359 42 -378 15 -7 75 -12 141 -12 l114 0 -2 -212
-3 -213 -392 -135 c-216 -74 -401 -143 -410 -153 -16 -16 -18 -39 -18 -196 0
-162 2 -181 19 -200 26 -29 86 -29 112 0 16 18 19 40 22 159 l4 139 46 16
c576 195 730 251 752 272 l25 23 3 250 3 250 219 0 219 0 3 -684 3 -684 22
-24 c15 -16 76 -41 188 -78 l165 -54 165 54 c112 37 173 62 188 78 l22 24 3
782 2 783 58 -21 c44 -15 82 -20 162 -20 80 0 118 5 162 20 l58 21 2 -783 3
-782 22 -24 c15 -16 76 -41 188 -78 l165 -54 165 54 c112 37 173 62 188 78
l22 24 3 684 3 684 219 0 219 0 3 -250 3 -250 25 -23 c22 -21 176 -77 752
-272 l46 -16 4 -139 c3 -119 6 -141 22 -159 26 -29 86 -29 112 0 17 19 19 38
19 200 0 157 -2 180 -18 196 -9 10 -194 79 -410 153 l-392 135 -3 213 -2 212
114 0 c66 0 126 5 141 12 43 19 48 64 42 378 -5 238 -9 296 -25 355 -19 69
-61 161 -101 220 -20 29 -21 44 -21 333 l0 302 284 0 284 0 52 28 c31 16 65
44 84 70 29 41 31 50 31 127 0 77 -2 86 -31 127 -44 61 -119 98 -195 98 l-59
0 1 158 0 157 47 30 c31 20 54 46 72 80 25 49 25 54 28 310 4 288 -1 334 -43
353 -35 16 -335 16 -370 0 -42 -19 -47 -65 -43 -353 3 -256 3 -261 28 -310 18
-34 41 -60 72 -80 l47 -30 0 -157 1 -158 -41 0 c-68 0 -99 -24 -99 -75 0 -66
25 -75 220 -75 195 0 220 -9 220 -75 0 -72 -15 -75 -332 -75 l-274 0 -12 33
c-18 50 -65 100 -123 132 l-54 30 -325 0 -325 0 -54 -30 c-58 -32 -105 -82
-123 -132 l-12 -33 -86 0 -86 0 -12 33 c-18 50 -65 100 -123 132 l-54 30 -325
0 -325 0 -54 -30 c-58 -32 -105 -82 -123 -132 l-12 -33 -86 0 -86 0 -12 33
c-18 50 -65 100 -123 132 l-54 30 -325 0 -325 0 -54 -30 c-58 -32 -105 -82
-123 -132 l-12 -33 -274 0 c-317 0 -332 3 -332 75 0 66 25 75 220 75 195 0
220 9 220 75 0 51 -31 75 -99 75 l-41 0 1 158 0 157 47 30 c31 20 54 46 72 80
25 49 25 54 28 310 4 288 -1 334 -43 353 -33 15 -341 15 -373 0z m258 -367 c0
-248 -1 -253 -55 -267 -23 -6 -64 10 -77 30 -4 6 -8 113 -8 239 l0 227 70 0
70 0 0 -229z m4200 0 c0 -248 -1 -253 -55 -267 -23 -6 -64 10 -77 30 -4 6 -8
113 -8 239 l0 227 70 0 70 0 0 -229z m-3066 -986 c43 -20 66 -63 66 -120 0
-44 -1 -46 -22 -39 -47 15 -94 24 -131 24 -45 0 -150 -34 -189 -61 -28 -20
-28 -20 -56 0 -39 27 -144 61 -189 61 -37 0 -84 -9 -130 -24 -22 -7 -23 -5
-23 39 0 56 23 99 64 119 46 23 563 23 610 1z m1201 -1 c63 -29 66 -49 63
-331 l-3 -252 -225 281 c-124 155 -231 290 -238 300 -13 17 -5 18 178 18 153
0 199 -3 225 -16z m1199 1 c43 -20 66 -63 66 -120 0 -44 -1 -46 -22 -39 -47
15 -94 24 -131 24 -45 0 -150 -34 -189 -61 -28 -20 -28 -20 -56 0 -39 27 -144
61 -189 61 -37 0 -84 -9 -130 -24 -22 -7 -23 -5 -23 39 0 56 23 99 64 119 46
23 563 23 610 1z m-1467 -413 l333 -417 0 -159 c0 -88 -2 -157 -3 -155 -2 2
-169 207 -370 456 l-367 452 0 83 c0 62 4 90 17 108 17 25 44 50 53 49 3 0
155 -188 337 -417z m-565 -279 c4 -441 7 -515 21 -559 20 -61 60 -135 99 -184
l28 -36 -2 -804 -3 -804 -107 -35 -108 -35 -107 35 -108 35 -3 647 -2 647 39
0 c60 0 89 18 101 59 6 22 10 319 10 789 l0 752 69 0 69 0 4 -507z m1198 -245
c0 -470 4 -767 10 -789 12 -41 41 -59 101 -59 l39 0 -2 -647 -3 -647 -107 -35
-108 -35 -107 35 -108 35 -3 803 -2 802 35 46 c40 53 79 131 96 194 8 30 13
205 16 547 l5 502 69 0 69 0 0 -752z m-2022 637 c20 -9 56 -34 79 -57 31 -30
50 -41 73 -41 23 0 42 11 73 41 71 69 148 89 224 57 79 -33 73 29 73 -692 l0
-643 -445 0 -445 0 0 256 c0 207 3 267 16 312 20 68 52 131 96 190 l33 44 3
241 c2 167 7 246 15 256 19 23 89 51 130 51 21 0 54 -7 75 -15z m2400 0 c20
-9 56 -34 79 -57 31 -30 50 -41 73 -41 23 0 42 11 73 41 49 48 101 72 154 72
41 0 111 -28 130 -51 8 -10 13 -89 15 -256 l3 -241 33 -44 c44 -59 76 -122 96
-190 13 -45 16 -105 16 -312 l0 -256 -445 0 -445 0 0 643 c0 605 1 645 18 660
50 45 135 59 200 32z m-738 -1019 c0 -5 -22 -31 -48 -56 -151 -145 -373 -144
-524 2 -27 26 -61 74 -76 105 l-27 58 -3 369 -3 368 340 -418 c187 -231 341
-423 341 -428z"/>
</g>
</svg>
