<?xml version="1.0" standalone="no"?>
<!DOCTYPE svg PUBLIC "-//W3C//DTD SVG 20010904//EN"
 "http://www.w3.org/TR/2001/REC-SVG-20010904/DTD/svg10.dtd">
<svg version="1.0" xmlns="http://www.w3.org/2000/svg"
 width="512.000000pt" height="512.000000pt" viewBox="0 0 512.000000 512.000000"
 preserveAspectRatio="xMidYMid meet">

<g transform="translate(0.000000,512.000000) scale(0.100000,-0.100000)"
fill="#000000" stroke="none">
<path d="M1982 5109 c-149 -19 -323 -78 -454 -153 -82 -46 -218 -143 -218
-154 1 -4 22 -30 48 -59 l47 -52 78 58 c452 333 1071 283 1467 -119 132 -134
237 -319 287 -507 24 -91 27 -116 31 -365 l4 -268 -119 0 c-114 0 -121 1 -142
24 -13 14 -45 85 -71 159 -57 163 -91 216 -162 251 l-52 26 -570 0 c-372 0
-584 -4 -609 -11 -86 -24 -141 -105 -207 -303 -47 -143 -51 -146 -200 -146
l-120 0 0 198 c0 224 12 340 46 462 33 115 109 269 178 360 l57 75 -51 48
c-28 26 -55 47 -60 47 -12 0 -102 -123 -150 -206 -56 -95 -114 -250 -140 -369
-18 -83 -23 -145 -27 -363 l-6 -263 -27 -14 c-46 -24 -97 -92 -111 -147 -7
-32 -10 -94 -7 -168 5 -104 8 -125 35 -183 17 -35 47 -82 67 -104 66 -73 190
-123 306 -123 50 0 50 0 50 -32 0 -18 9 -70 20 -116 56 -232 193 -433 393
-575 17 -12 17 -16 -6 -102 l-24 -90 -304 -127 c-539 -224 -593 -248 -683
-301 -165 -97 -283 -228 -328 -366 -20 -63 -22 -88 -26 -548 l-4 -483 2001 0
2001 0 0 75 0 75 -118 0 -117 0 -68 478 c-41 288 -68 510 -67 560 l0 82 445 0
445 0 0 -82 c1 -50 -26 -272 -67 -560 l-68 -478 -117 0 -118 0 0 -75 0 -75
183 0 182 0 83 582 83 583 -1 260 c0 314 -9 401 -48 487 -57 123 -162 234
-278 293 l-54 27 0 159 0 159 -225 0 -225 0 0 -159 0 -159 -54 -27 c-115 -58
-220 -168 -278 -291 -34 -74 -48 -174 -48 -361 0 -73 -2 -133 -5 -133 -3 0
-32 13 -65 30 -53 27 -366 159 -746 315 l-142 58 -21 81 c-12 44 -21 86 -21
93 0 6 22 27 49 47 108 80 227 227 291 361 32 67 75 213 85 286 l6 46 77 6
c42 3 103 15 135 27 80 30 165 111 203 192 27 59 29 72 32 208 3 142 2 146
-25 200 -20 40 -41 63 -75 85 l-47 30 0 235 c-1 271 -14 371 -67 530 -192 576
-770 937 -1372 859z m745 -1331 c29 -32 45 -68 82 -178 39 -119 82 -194 126
-223 l35 -22 0 -313 c0 -346 -7 -408 -62 -539 -100 -242 -318 -427 -576 -490
-100 -24 -285 -21 -387 6 -296 79 -515 298 -596 596 -20 73 -23 109 -27 413
-3 229 -1 332 7 332 22 0 84 66 110 119 16 31 41 94 56 141 34 104 59 156 82
169 12 7 214 10 574 11 l556 0 20 -22z m-1557 -664 l0 -227 -65 6 c-83 6 -150
40 -188 93 -36 52 -46 97 -47 210 0 77 3 95 21 118 20 26 22 26 150 26 l129 0
0 -226z m2230 206 c18 -18 20 -33 20 -135 0 -127 -11 -169 -58 -218 -42 -45
-100 -69 -174 -75 l-68 -5 0 227 0 226 130 0 c117 0 132 -2 150 -20z m970
-995 l0 -75 -75 0 -75 0 0 75 0 75 75 0 75 0 0 -75z m138 -255 c113 -57 219
-196 230 -302 l5 -48 -448 0 -448 0 5 49 c3 26 15 69 28 96 35 71 131 169 202
205 60 29 64 30 213 30 149 0 153 -1 213 -30z m-2620 -191 c90 -26 244 -42
326 -34 85 8 213 37 284 63 l52 20 10 -37 c27 -101 44 -79 -191 -246 -117 -82
-217 -150 -223 -149 -10 1 -185 122 -367 256 l-67 48 15 58 c8 31 17 60 19 64
3 4 21 0 42 -9 20 -9 65 -24 100 -34z m-63 -345 c113 -81 204 -150 203 -155
-6 -18 -171 -200 -178 -197 -10 4 -370 431 -370 439 0 5 117 57 132 58 3 1 99
-65 213 -145z m927 120 c42 -17 65 -31 61 -38 -21 -35 -366 -436 -373 -434 -5
2 -47 47 -95 102 -79 90 -85 99 -68 111 136 99 399 284 403 285 2 0 35 -12 72
-26z m1988 -159 l0 -75 -445 0 -445 0 0 75 0 75 445 0 445 0 0 -75z m-3460
-689 c5 -5 184 -82 397 -171 l388 -163 3 -161 2 -161 -545 0 -545 0 2 636 3
636 140 57 140 58 3 -361 c1 -210 6 -364 12 -370z m1903 669 l137 -58 0 -633
0 -634 -550 0 -550 0 0 159 0 158 318 133 c174 73 354 149 400 168 l82 34 0
370 c0 292 3 369 13 365 6 -2 74 -31 150 -62z m-1434 -413 c52 -62 98 -112
102 -112 5 0 223 243 280 313 15 19 22 12 161 -147 81 -92 149 -167 153 -167
3 0 99 111 213 247 l207 247 3 -268 c1 -147 0 -270 -2 -272 -2 -2 -164 -71
-361 -153 l-356 -150 -357 149 -357 149 -3 272 -2 272 112 -134 c62 -73 155
-184 207 -246z m-929 -312 l0 -600 -220 0 -221 0 3 417 3 418 28 54 c56 105
166 198 327 275 41 20 76 36 77 36 2 0 3 -270 3 -600z m2765 547 l100 -52 3
-50 c2 -28 34 -268 73 -534 38 -267 69 -491 69 -498 0 -10 -39 -13 -180 -13
l-180 0 0 600 c0 330 3 600 8 600 4 0 52 -24 107 -53z"/>
<path d="M2640 375 l0 -75 265 0 265 0 0 75 0 75 -265 0 -265 0 0 -75z"/>
<path d="M2340 4685 l0 -75 75 0 75 0 0 75 0 75 -75 0 -75 0 0 -75z"/>
<path d="M2640 4535 l0 -75 75 0 75 0 0 75 0 75 -75 0 -75 0 0 -75z"/>
</g>
</svg>
