<?xml version="1.0" standalone="no"?>
<!DOCTYPE svg PUBLIC "-//W3C//DTD SVG 20010904//EN"
 "http://www.w3.org/TR/2001/REC-SVG-20010904/DTD/svg10.dtd">
<svg version="1.0" xmlns="http://www.w3.org/2000/svg"
 width="512.000000pt" height="512.000000pt" viewBox="0 0 512.000000 512.000000"
 preserveAspectRatio="xMidYMid meet">

<g transform="translate(0.000000,512.000000) scale(0.100000,-0.100000)"
fill="#000000" stroke="none">
<path d="M2517 5100 c-28 -22 -117 -176 -165 -286 -101 -230 -76 -387 73 -460
l55 -26 0 -134 0 -134 -114 0 c-170 0 -156 44 -156 -481 l0 -429 -280 0 -280
0 0 725 c0 712 0 725 -20 745 -25 25 -71 26 -101 1 l-24 -19 -3 -726 -2 -726
-28 -5 c-127 -26 -198 -60 -274 -133 -70 -67 -110 -127 -137 -209 -20 -60 -21
-83 -21 -525 l0 -463 -76 -13 c-182 -28 -330 -151 -396 -328 -22 -57 -22 -72
-26 -522 l-3 -462 -245 0 -245 0 -24 -25 c-29 -28 -32 -72 -11 -150 40 -150
151 -261 300 -301 76 -20 4416 -20 4492 0 149 40 260 151 300 301 21 78 18
122 -11 150 l-24 25 -245 0 -245 0 -3 462 c-4 450 -4 465 -26 522 -66 177
-214 300 -396 328 l-76 13 0 463 c0 442 -1 465 -21 525 -27 83 -67 142 -139
211 -62 60 -154 109 -225 121 -82 14 -74 -38 -77 475 -3 434 -4 459 -22 479
-25 27 -79 28 -106 1 -19 -19 -20 -33 -20 -480 l0 -460 -280 0 -280 0 0 429
c0 525 15 479 -158 483 l-117 3 -3 132 -3 131 35 12 c54 17 114 66 136 111 60
116 25 276 -118 531 -54 98 -89 138 -122 138 -10 0 -29 -9 -43 -20z m91 -288
c56 -100 85 -186 77 -229 -19 -104 -161 -147 -225 -66 -33 42 -36 90 -11 162
21 61 100 211 111 211 3 0 24 -35 48 -78z m152 -977 l0 -75 -200 0 -200 0 0
75 0 75 200 0 200 0 0 -75z m0 -300 l0 -75 -200 0 -200 0 0 75 0 75 200 0 200
0 0 -75z m0 -305 l0 -80 -200 0 -200 0 0 80 0 80 200 0 200 0 0 -80z m968
-264 c79 -37 152 -114 181 -191 12 -31 21 -60 21 -65 0 -5 -15 -16 -33 -25
-62 -29 -108 -78 -187 -195 -96 -143 -125 -170 -185 -170 -60 0 -96 34 -190
175 -111 168 -169 210 -295 210 -124 0 -191 -53 -313 -242 -71 -111 -109 -143
-167 -143 -58 0 -96 32 -167 143 -75 116 -140 189 -198 220 -58 31 -173 30
-234 -2 -91 -48 -114 -99 -66 -146 29 -30 67 -32 104 -6 34 25 74 35 105 27
42 -11 84 -55 160 -170 112 -170 175 -216 296 -216 121 0 184 46 296 216 99
150 144 186 210 170 49 -13 75 -39 150 -153 117 -178 174 -223 292 -231 126
-9 201 45 326 233 42 63 81 117 86 120 6 4 10 -127 10 -354 l0 -361 -1370 0
-1370 0 0 361 c0 239 3 358 10 354 6 -3 43 -57 84 -118 41 -62 91 -129 112
-151 108 -111 279 -114 392 -8 36 33 42 73 17 109 -30 43 -76 38 -138 -13 -20
-17 -41 -24 -72 -24 -60 0 -97 34 -186 171 -73 111 -124 165 -185 194 -19 9
-34 20 -34 25 0 5 9 34 21 64 37 100 140 190 246 215 22 5 512 9 1123 8 l1085
-2 63 -29z m493 -1337 c31 -15 75 -43 97 -64 40 -36 102 -142 102 -174 0 -10
-22 -26 -57 -40 -77 -34 -136 -97 -246 -264 -125 -190 -168 -227 -264 -227
-94 0 -127 31 -277 255 -99 148 -147 199 -225 237 -38 19 -62 23 -146 23 -92
0 -104 -2 -153 -30 -69 -38 -144 -119 -217 -236 -121 -195 -170 -240 -265
-247 -100 -7 -156 41 -286 248 -74 118 -147 198 -216 235 -43 23 -68 30 -134
33 -174 9 -260 -53 -416 -303 -106 -168 -162 -215 -258 -215 -92 0 -130 34
-265 240 -102 154 -162 218 -238 251 -33 14 -57 30 -57 39 0 26 46 115 80 154
37 42 102 82 163 102 34 10 337 12 1632 11 l1590 -2 56 -26z m-2199 -432 c28
-21 77 -83 143 -182 111 -167 176 -239 250 -275 42 -21 64 -25 145 -25 80 0
103 4 145 24 72 35 152 122 234 253 86 139 131 192 182 218 45 24 128 26 168
6 43 -23 103 -95 195 -234 142 -216 232 -278 391 -270 61 4 92 11 131 31 68
34 157 132 233 255 63 102 137 194 172 213 18 9 19 -1 19 -356 l0 -365 -205 0
c-205 0 -206 0 -230 -25 -14 -13 -25 -36 -25 -50 0 -14 11 -37 25 -50 l24 -25
470 0 470 0 -11 -32 c-6 -18 -32 -53 -58 -79 -87 -87 136 -79 -2330 -79 -2466
0 -2243 -8 -2330 79 -26 26 -52 61 -58 79 l-11 32 1765 0 1765 0 26 26 c20 20
24 31 19 57 -3 18 -16 40 -27 50 -20 16 -107 17 -1520 17 l-1499 0 0 365 c0
345 1 365 18 356 43 -23 102 -100 207 -265 52 -83 141 -173 200 -204 38 -19
70 -26 130 -30 160 -8 249 54 392 272 104 159 124 183 176 219 33 22 51 27
103 27 55 0 68 -4 106 -33z"/>
<path d="M1541 2594 c-25 -32 -26 -45 -6 -83 29 -57 111 -46 129 17 21 73 -76
126 -123 66z"/>
<path d="M2510 2600 c-26 -26 -26 -81 0 -105 46 -42 120 -10 120 52 0 42 -30
73 -70 73 -17 0 -39 -9 -50 -20z"/>
<path d="M3471 2594 c-24 -30 -25 -42 -11 -79 20 -53 104 -53 129 1 16 35 14
48 -10 78 -15 19 -30 26 -54 26 -24 0 -39 -7 -54 -26z"/>
<path d="M1215 1185 c-30 -30 -32 -64 -4 -99 24 -31 67 -35 97 -8 49 41 19
132 -43 132 -14 0 -37 -11 -50 -25z"/>
<path d="M2516 1189 c-52 -41 -23 -129 44 -129 67 0 96 88 44 129 -15 12 -34
21 -44 21 -10 0 -29 -9 -44 -21z"/>
<path d="M3810 1190 c-31 -31 -30 -85 2 -112 30 -27 73 -23 97 8 28 35 26 69
-4 99 -29 30 -68 32 -95 5z"/>
<path d="M1517 5062 c-13 -14 -17 -39 -17 -109 0 -81 2 -92 23 -111 23 -22 51
-27 82 -16 55 21 63 211 11 246 -22 15 -83 8 -99 -10z"/>
<path d="M1832 4886 c-55 -54 -65 -68 -64 -96 1 -42 32 -73 72 -73 25 0 44 12
92 61 50 49 61 67 61 93 0 36 -40 79 -75 79 -11 0 -48 -27 -86 -64z"/>
<path d="M1189 4927 c-25 -19 -41 -57 -35 -81 3 -12 32 -48 65 -79 58 -56 85
-66 126 -51 16 7 45 54 45 74 0 7 -30 43 -67 81 -68 71 -98 84 -134 56z"/>
<path d="M1900 4580 c-30 -30 -27 -83 6 -109 21 -17 41 -21 95 -21 37 0 79 4
93 10 48 18 59 86 20 124 -12 12 -37 16 -105 16 -76 0 -92 -3 -109 -20z"/>
<path d="M1037 4572 c-21 -23 -22 -86 -1 -106 22 -23 55 -29 134 -24 81 4 104
20 104 72 0 62 -23 76 -129 76 -76 0 -95 -3 -108 -18z"/>
<path d="M3503 4550 c-34 -14 -43 -42 -43 -130 0 -73 3 -83 25 -105 13 -14 36
-25 50 -25 14 0 37 11 50 25 23 22 25 32 25 108 0 66 -4 89 -17 105 -21 25
-60 35 -90 22z"/>
<path d="M3793 4357 c-51 -51 -63 -70 -63 -95 0 -42 31 -72 73 -72 28 0 44 10
95 64 71 73 78 102 36 141 -43 40 -69 33 -141 -38z"/>
<path d="M3142 4387 c-39 -41 -29 -75 41 -145 71 -70 101 -78 142 -37 41 40
33 70 -38 142 -72 71 -107 81 -145 40z"/>
<path d="M1795 4315 c-40 -40 -33 -69 37 -141 51 -54 67 -64 95 -64 43 0 73
30 73 73 0 28 -10 44 -64 95 -72 70 -101 77 -141 37z"/>
<path d="M1223 4267 c-71 -72 -79 -102 -38 -142 41 -42 72 -34 143 38 70 71
80 107 39 145 -41 39 -73 29 -144 -41z"/>
<path d="M3860 4050 c-28 -28 -26 -71 6 -101 23 -21 35 -24 109 -24 68 0 87 4
104 19 25 23 28 72 5 104 -14 20 -23 22 -110 22 -81 0 -97 -3 -114 -20z"/>
<path d="M3000 4040 c-25 -25 -26 -71 -1 -101 18 -22 27 -24 111 -24 84 0 93
2 111 24 25 30 24 76 -1 101 -17 17 -33 20 -110 20 -77 0 -93 -3 -110 -20z"/>
<path d="M3763 3795 c-28 -20 -37 -59 -19 -93 25 -48 112 -122 143 -122 61 0
96 55 69 108 -18 35 -88 100 -122 112 -34 13 -46 13 -71 -5z"/>
<path d="M3199 3753 c-47 -44 -79 -89 -79 -112 0 -5 12 -23 26 -40 38 -45 70
-41 133 15 69 62 87 96 70 135 -26 65 -82 66 -150 2z"/>
</g>
</svg>
