<?xml version="1.0" standalone="no"?>
<!DOCTYPE svg PUBLIC "-//W3C//DTD SVG 20010904//EN"
 "http://www.w3.org/TR/2001/REC-SVG-20010904/DTD/svg10.dtd">
<svg version="1.0" xmlns="http://www.w3.org/2000/svg"
 width="512.000000pt" height="512.000000pt" viewBox="0 0 512.000000 512.000000"
 preserveAspectRatio="xMidYMid meet">

<g transform="translate(0.000000,512.000000) scale(0.100000,-0.100000)"
fill="#000000" stroke="none">
<path d="M1739 4771 c-16 -16 -29 -37 -29 -47 0 -30 87 -202 108 -213 54 -29
122 5 122 61 0 32 -65 175 -93 206 -29 31 -72 29 -108 -7z"/>
<path d="M4177 4613 l-134 -178 -60 3 c-46 3 -73 -2 -109 -18 -37 -16 -253
-50 -919 -146 -682 -98 -875 -129 -895 -143 -17 -12 -26 -29 -28 -54 -3 -39 0
-44 241 -312 88 -99 120 -141 109 -143 -10 -1 -449 49 -976 113 -528 63 -978
115 -1001 115 -49 0 -85 -31 -85 -72 0 -24 730 -1481 792 -1580 16 -26 45 -57
64 -69 25 -15 34 -28 34 -47 0 -15 -29 -281 -66 -592 -46 -402 -69 -568 -79
-576 -7 -5 -137 -81 -289 -169 -297 -171 -312 -183 -287 -243 6 -15 19 -32 29
-39 10 -6 271 -41 580 -78 l563 -68 27 20 c20 15 28 30 30 60 l3 40 -238 228
c-180 172 -239 234 -240 254 -2 14 28 280 65 590 l68 564 49 23 c27 13 60 34
73 46 20 19 604 704 991 1165 47 56 91 101 96 102 6 0 179 -189 385 -420 427
-479 472 -524 537 -542 25 -6 47 -16 49 -22 2 -5 49 -320 104 -700 l100 -689
-280 -281 c-287 -288 -294 -297 -274 -350 4 -8 19 -22 35 -31 27 -14 76 -8
672 77 353 50 653 96 667 103 14 6 31 24 39 40 11 25 11 33 -2 60 -12 26 -67
60 -353 215 -187 102 -341 186 -342 187 -2 1 -50 317 -107 701 -93 632 -101
699 -86 708 9 6 39 33 66 60 45 45 71 95 253 476 111 234 202 434 202 446 0
11 -9 32 -21 47 -25 32 -86 37 -112 8 -9 -9 -106 -204 -215 -432 -110 -228
-211 -427 -224 -442 -33 -37 -88 -45 -133 -22 -37 20 -964 1046 -949 1051 5 1
119 18 254 38 280 40 316 48 330 75 23 43 10 94 -29 115 -24 12 -64 8 -359
-34 l-331 -47 -95 105 c-52 58 -91 107 -88 108 4 2 320 48 702 103 382 55 710
102 728 105 27 5 32 3 32 -14 0 -14 -11 -23 -36 -31 -82 -27 -153 -123 -154
-206 0 -38 -2 -41 -37 -52 -123 -37 -193 -185 -145 -309 12 -31 16 -56 11 -65
-10 -15 -12 -60 -3 -83 16 -40 87 -51 126 -18 10 9 43 15 96 16 72 2 85 5 123
32 56 40 98 107 105 172 6 48 8 51 44 62 40 12 115 79 125 112 4 10 10 19 14
19 5 0 68 9 141 20 73 12 134 19 136 17 3 -2 -7 -29 -21 -61 -31 -71 -32 -100
0 -131 29 -30 74 -33 103 -7 24 20 352 709 352 739 0 11 -9 32 -21 47 -26 33
-43 33 -259 1 -90 -13 -166 -22 -168 -20 -2 2 33 52 77 111 62 81 81 115 81
139 0 45 -32 75 -80 75 -40 0 -40 0 -173 -177z m261 -409 l-63 -129 -110 -15
-110 -16 28 56 c25 48 28 64 25 125 l-3 70 145 21 c80 11 146 19 148 18 2 -1
-25 -60 -60 -130z m-405 54 c39 -47 5 -128 -55 -128 -41 0 -63 14 -78 49 -32
79 77 145 133 79z m-196 -250 c32 -30 31 -81 -2 -113 -49 -49 -125 -16 -125
55 0 69 77 105 127 58z m-187 -258 c46 -46 13 -130 -51 -130 -43 0 -65 15 -78
50 -12 36 -1 73 26 89 30 17 81 13 103 -9z m-2163 -187 c502 -59 912 -111 910
-115 -1 -4 -40 -53 -87 -108 -74 -87 -88 -100 -110 -96 -14 3 -246 31 -517 62
-469 54 -493 56 -518 40 -51 -33 -52 -98 -3 -130 16 -10 165 -31 468 -65 245
-28 451 -52 458 -54 13 -2 -623 -758 -693 -824 -43 -41 -94 -45 -128 -10 -21
20 -507 966 -507 985 0 4 26 5 58 1 92 -12 102 -10 128 16 19 20 24 34 22 62
-5 56 -33 70 -177 87 -68 9 -125 17 -126 18 -2 2 -31 56 -65 121 -52 98 -59
117 -43 117 10 1 429 -48 930 -107z m2640 -2801 c119 -63 158 -89 145 -94 -15
-6 -721 -108 -747 -108 -5 0 69 78 164 174 l174 175 51 -30 c28 -16 124 -68
213 -117z m-2847 -124 c73 -71 128 -128 122 -128 -29 0 -531 61 -555 68 -26 6
-16 14 130 99 87 50 161 91 164 90 4 -1 66 -59 139 -129z"/>
<path d="M2215 4564 c-44 -20 -88 -45 -97 -56 -41 -47 -6 -128 55 -128 38 0
191 73 210 101 24 33 21 66 -8 94 -33 34 -65 31 -160 -11z"/>
<path d="M1633 4300 c-112 -53 -138 -96 -92 -154 28 -36 69 -34 165 10 101 46
114 58 114 105 0 29 -6 42 -26 58 -37 29 -66 25 -161 -19z"/>
</g>
</svg>
