<?xml version="1.0" standalone="no"?>
<!DOCTYPE svg PUBLIC "-//W3C//DTD SVG 20010904//EN"
 "http://www.w3.org/TR/2001/REC-SVG-20010904/DTD/svg10.dtd">
<svg version="1.0" xmlns="http://www.w3.org/2000/svg"
 width="512.000000pt" height="512.000000pt" viewBox="0 0 512.000000 512.000000"
 preserveAspectRatio="xMidYMid meet">

<g transform="translate(0.000000,512.000000) scale(0.100000,-0.100000)"
fill="#000000" stroke="none">
<path d="M25 5095 c-22 -21 -25 -33 -25 -99 0 -139 66 -244 178 -286 50 -19
78 -20 531 -20 453 0 480 1 502 19 32 26 32 86 0 112 -22 18 -49 19 -493 19
-404 0 -473 2 -499 15 -32 17 -69 69 -69 98 0 16 121 17 2410 17 2170 0 2410
-2 2410 -15 0 -29 -31 -76 -63 -95 -31 -20 -63 -20 -1723 -20 l-1691 0 -27
-21 c-36 -28 -36 -80 0 -108 26 -21 36 -21 515 -21 l489 0 0 -93 0 -92 -30
-13 c-43 -20 -90 -70 -113 -121 -15 -34 -21 -75 -25 -171 -6 -157 2 -215 33
-246 24 -24 27 -24 215 -24 188 0 191 0 215 24 31 31 39 89 33 246 -4 96 -10
137 -25 171 -23 52 -85 117 -120 125 -22 6 -23 10 -23 100 l0 94 265 0 265 0
0 -93 0 -92 -30 -13 c-43 -20 -90 -70 -113 -121 -15 -34 -21 -75 -25 -171 -6
-157 2 -215 33 -246 24 -24 27 -24 215 -24 188 0 191 0 215 24 31 31 39 89 33
246 -4 96 -10 137 -25 171 -23 52 -85 117 -120 125 -22 6 -23 10 -23 100 l0
94 265 0 265 0 0 -93 0 -92 -30 -13 c-43 -20 -90 -70 -113 -121 -15 -34 -21
-75 -25 -171 -6 -157 2 -215 33 -246 24 -24 27 -24 215 -24 188 0 191 0 215
24 31 31 39 89 33 246 -4 96 -10 137 -25 171 -23 52 -85 117 -120 125 -22 6
-23 10 -23 100 l0 94 265 0 265 0 0 -93 0 -92 -30 -13 c-43 -20 -90 -70 -113
-121 -15 -34 -21 -75 -25 -171 -6 -157 2 -215 33 -246 24 -24 27 -24 215 -24
188 0 191 0 215 24 31 31 39 89 33 246 -4 96 -10 137 -25 171 -23 52 -85 117
-120 125 -22 6 -23 10 -23 100 l0 94 95 0 c119 0 183 22 243 83 57 58 82 126
82 223 0 66 -3 78 -25 99 l-24 25 -2511 0 -2511 0 -24 -25z m2584 -751 l31
-26 0 -119 0 -119 -90 0 -90 0 0 119 0 119 31 26 c17 15 43 26 59 26 16 0 42
-11 59 -26z m690 0 l31 -26 0 -119 0 -119 -90 0 -90 0 0 119 0 119 31 26 c17
15 43 26 59 26 16 0 42 -11 59 -26z m690 0 l31 -26 0 -119 0 -119 -90 0 -90 0
0 119 0 119 31 26 c17 15 43 26 59 26 16 0 42 -11 59 -26z m690 0 l31 -26 0
-119 0 -119 -90 0 -90 0 0 119 0 119 31 26 c17 15 43 26 59 26 16 0 42 -11 59
-26z"/>
<path d="M1613 4494 c-66 -33 -67 -41 -74 -334 -6 -287 -14 -331 -76 -439
-116 -200 -134 -273 -140 -563 l-5 -228 -98 0 -97 0 18 53 c26 73 24 116 -16
337 -19 107 -35 198 -35 201 0 4 -12 18 -26 33 l-27 26 -293 0 c-289 0 -293 0
-319 -22 -24 -21 -30 -43 -66 -243 -41 -227 -42 -270 -13 -342 8 -18 14 -35
14 -38 0 -3 -52 -5 -117 -5 -106 0 -120 -2 -159 -25 -67 -39 -84 -85 -84 -230
0 -100 3 -125 21 -162 30 -61 86 -93 167 -93 l62 0 0 -650 0 -651 25 -24 c13
-14 36 -25 50 -25 14 0 37 11 50 25 l25 24 0 651 0 650 2160 0 2160 0 0 -1087
c0 -1061 -1 -1089 -20 -1120 -36 -60 -52 -63 -329 -63 l-250 0 -10 35 c-25 90
-119 196 -206 231 l-45 19 0 143 0 142 50 0 c41 0 56 5 75 25 32 31 32 69 0
100 -19 20 -34 25 -75 25 l-50 0 0 198 0 198 41 39 c43 42 82 109 93 162 l7
31 127 4 c147 4 175 16 211 91 19 39 21 61 21 220 0 187 -5 215 -48 261 -50
54 -67 56 -376 56 -262 0 -286 -1 -307 -19 -28 -23 -32 -83 -6 -109 16 -15 49
-18 300 -22 l282 -5 0 -160 0 -160 -563 -3 -562 -2 2 162 3 163 136 5 c116 4
140 8 158 24 31 28 28 79 -6 106 -26 20 -37 21 -178 18 -145 -3 -153 -4 -192
-30 -61 -40 -76 -81 -81 -229 -8 -221 8 -289 81 -343 24 -18 47 -22 153 -26
l125 -5 18 -52 c21 -62 64 -127 103 -154 l28 -20 0 -200 0 -199 -53 0 c-66 0
-97 -24 -97 -75 0 -51 31 -75 97 -75 l53 0 0 -141 0 -140 -37 -16 c-97 -40
-203 -156 -219 -239 l-6 -34 -608 0 -608 0 -6 34 c-16 83 -122 199 -218 239
l-38 16 0 140 0 141 53 0 c66 0 97 24 97 75 0 51 -31 75 -97 75 l-53 0 0 199
0 200 28 20 c39 27 82 92 103 154 l18 52 125 5 c106 4 129 8 153 26 73 54 89
122 81 343 -5 148 -20 189 -81 229 l-41 27 -575 3 c-317 2 -591 0 -609 -3 -40
-7 -101 -59 -118 -102 -10 -23 -14 -83 -14 -210 0 -201 10 -240 71 -284 31
-22 46 -24 161 -27 l127 -4 7 -31 c11 -54 51 -122 93 -160 l41 -37 0 -200 0
-200 -50 0 c-41 0 -56 -5 -75 -25 -32 -31 -32 -69 0 -100 19 -20 34 -25 75
-25 l50 0 0 -142 0 -143 -46 -19 c-66 -27 -148 -106 -183 -178 -17 -34 -31
-67 -31 -75 0 -10 -48 -13 -250 -13 -278 0 -294 3 -330 63 -19 30 -20 52 -20
320 l0 288 -25 24 c-31 32 -69 32 -100 0 l-25 -24 0 -295 c0 -270 2 -300 20
-348 25 -68 90 -132 158 -158 51 -20 85 -20 2132 -20 2047 0 2081 0 2132 20
68 26 133 90 158 158 20 51 20 79 20 1147 l0 1095 61 0 c73 0 123 24 159 77
23 33 25 47 28 165 3 115 1 133 -18 173 -15 31 -36 53 -64 70 l-43 25 -1066 0
-1066 0 -20 -26 c-32 -40 -26 -84 13 -107 16 -9 269 -13 1066 -17 l1045 -5 0
-100 0 -100 -2405 0 -2405 0 0 100 0 100 1205 5 c923 4 1210 8 1226 17 39 23
45 67 13 107 l-20 26 -184 0 -183 0 -5 238 c-5 281 -12 312 -111 510 -93 185
-97 202 -103 501 l-5 254 -33 36 -33 36 -139 3 c-111 2 -144 -1 -170 -14z
m227 -254 l0 -120 -75 0 -75 0 0 120 0 120 75 0 75 0 0 -120z m10 -298 c0 -65
43 -194 109 -327 92 -185 101 -229 101 -484 l0 -201 -296 0 -296 0 4 223 c6
258 14 295 104 463 63 117 86 181 104 282 l13 72 79 0 78 0 0 -28z m-885 -579
l12 -63 -235 0 -234 0 6 28 c3 15 8 44 12 65 l6 37 211 -2 211 -3 11 -62z m43
-262 c6 -75 -35 -136 -107 -160 -43 -14 -264 -14 -315 0 -74 21 -125 103 -110
178 l7 31 261 -2 261 -3 3 -44z m1030 -1289 l2 -162 -562 2 -563 3 -3 150 c-1
82 0 155 2 162 4 11 112 13 563 11 l558 -3 3 -163z m-358 -327 c0 -22 -61 -86
-97 -101 -50 -22 -176 -18 -222 6 -44 22 -81 64 -81 91 0 18 11 19 200 19 169
0 200 -2 200 -15z m2160 -4 c0 -27 -43 -75 -84 -95 -42 -20 -173 -22 -219 -2
-36 15 -97 79 -97 101 0 13 31 15 200 15 191 0 200 -1 200 -19z m-2300 -436
l0 -175 -65 0 -65 0 0 175 0 175 65 0 65 0 0 -175z m2170 0 l0 -175 -65 0 -65
0 0 175 0 175 65 0 65 0 0 -175z m-2170 -460 l0 -135 -65 0 -65 0 0 135 0 135
65 0 65 0 0 -135z m2170 0 l0 -135 -65 0 -65 0 0 135 0 135 65 0 65 0 0 -135z
m-2025 -307 c39 -21 83 -65 101 -100 l15 -28 -321 0 c-176 0 -320 3 -320 8 0
17 41 72 72 95 56 42 84 46 258 44 132 -2 171 -5 195 -19z m2136 11 c47 -14
104 -61 125 -101 8 -16 14 -32 11 -34 -2 -2 -147 -3 -321 -2 l-317 3 27 40
c28 44 75 81 120 95 43 13 311 12 355 -1z"/>
</g>
</svg>
