<?xml version="1.0" standalone="no"?>
<!DOCTYPE svg PUBLIC "-//W3C//DTD SVG 20010904//EN"
 "http://www.w3.org/TR/2001/REC-SVG-20010904/DTD/svg10.dtd">
<svg version="1.0" xmlns="http://www.w3.org/2000/svg"
 width="512.000000pt" height="512.000000pt" viewBox="0 0 512.000000 512.000000"
 preserveAspectRatio="xMidYMid meet">

<g transform="translate(0.000000,512.000000) scale(0.100000,-0.100000)"
fill="#000000" stroke="none">
<path d="M365 5110 c-36 -15 -67 -52 -92 -109 -47 -109 -39 -101 -163 -160
-73 -35 -100 -65 -107 -120 -10 -72 42 -131 148 -170 69 -26 82 -41 114 -121
51 -130 139 -172 227 -108 29 20 78 104 78 132 0 24 59 85 89 93 117 28 189
114 162 196 -16 48 -57 83 -131 112 -82 32 -94 44 -125 125 -43 112 -121 163
-200 130z m125 -303 c27 -30 61 -54 104 -73 l64 -28 -56 -23 c-72 -29 -136
-93 -165 -165 l-23 -56 -28 64 c-33 76 -95 136 -167 161 l-47 17 68 33 c78 38
119 81 152 161 l22 53 18 -50 c10 -27 36 -69 58 -94z"/>
<path d="M2470 5105 c-59 -19 -125 -76 -154 -134 -12 -25 -56 -140 -96 -256
-40 -115 -76 -213 -79 -216 -3 -4 -37 -4 -74 0 l-69 6 -68 164 c-40 96 -80
175 -97 193 -45 47 -94 68 -163 68 -126 0 -221 -92 -222 -216 -1 -45 11 -84
67 -220 l68 -165 -30 -32 c-17 -18 -37 -42 -45 -54 l-14 -22 -235 111 c-211
101 -240 113 -300 116 -85 5 -151 -22 -212 -87 -58 -62 -81 -122 -75 -203 3
-57 19 -95 156 -381 83 -176 146 -317 139 -314 -7 3 -62 26 -124 51 -116 48
-158 54 -224 35 -161 -49 -208 -274 -80 -382 17 -14 82 -47 145 -73 75 -31
111 -51 102 -56 -7 -4 -147 -55 -311 -113 -164 -58 -315 -115 -335 -125 -79
-40 -140 -145 -140 -240 0 -95 61 -200 141 -241 21 -10 173 -67 336 -124 164
-58 305 -108 313 -111 10 -4 0 -13 -30 -26 -70 -30 -110 -66 -136 -122 -89
-190 104 -380 301 -296 26 11 48 20 51 20 2 0 -6 -20 -17 -44 l-22 -43 -91 -6
c-205 -11 -388 -118 -505 -292 -184 -275 -150 -617 83 -851 234 -233 576 -267
851 -83 171 115 281 305 292 505 l6 91 194 92 c107 51 196 91 198 89 2 -2 78
-214 169 -471 91 -258 175 -485 186 -507 40 -79 145 -140 240 -140 95 0 200
61 241 141 10 21 67 172 124 335 58 163 109 302 113 310 5 9 44 -75 112 -238
110 -267 135 -307 205 -339 51 -23 145 -25 188 -3 82 41 129 116 129 203 0 48
-15 90 -102 301 -56 135 -104 250 -107 257 -3 7 138 -56 314 -139 286 -137
324 -153 381 -156 81 -6 141 17 203 75 105 98 116 210 37 375 l-46 97 36 12
c53 17 114 48 140 72 32 29 30 79 -4 106 -35 27 -56 26 -107 -3 -91 -54 -242
-71 -348 -40 -220 64 -361 282 -329 507 29 198 185 356 386 388 196 32 389
-72 481 -258 33 -67 38 -85 41 -170 4 -83 1 -105 -23 -179 -31 -95 -27 -124
20 -146 90 -41 163 119 153 336 -6 117 -40 219 -102 306 -25 34 -32 52 -24 55
7 3 70 25 140 50 164 57 198 75 242 127 86 100 86 256 0 356 -48 57 -81 72
-409 187 -154 54 -282 100 -284 102 -18 15 74 65 258 142 131 55 225 100 243
118 91 85 91 241 1 324 -46 43 -91 61 -152 61 -48 0 -90 -15 -306 -104 -137
-58 -251 -102 -253 -98 -1 3 64 145 145 316 132 277 147 316 151 372 6 81 -17
141 -75 203 -61 65 -127 92 -212 87 -61 -3 -91 -16 -384 -155 -176 -84 -317
-147 -314 -140 3 7 26 62 51 124 48 116 54 158 35 224 -49 161 -274 208 -382
80 -14 -17 -47 -82 -73 -145 -32 -76 -51 -111 -56 -102 -4 8 -55 147 -113 310
-57 163 -114 314 -124 335 -57 111 -201 166 -331 126z m149 -149 c15 -8 35
-25 43 -38 8 -13 97 -255 198 -538 104 -294 191 -525 203 -537 11 -13 31 -23
45 -23 13 0 252 108 530 241 471 223 510 240 551 236 59 -7 101 -49 108 -108
4 -40 -8 -70 -134 -336 -122 -258 -141 -293 -161 -293 -59 0 -109 -49 -142
-138 -27 -72 -51 -97 -109 -117 -66 -22 -108 -50 -131 -87 -51 -84 1 -183 115
-218 68 -21 100 -52 125 -122 14 -39 37 -77 60 -100 34 -34 43 -38 89 -38 44
0 56 5 91 36 27 24 47 55 61 95 12 33 25 58 29 57 4 -2 166 -59 360 -128 365
-129 401 -147 416 -204 10 -42 -5 -97 -35 -125 -18 -17 -92 -48 -210 -90
l-182 -64 -77 36 c-109 50 -153 61 -267 61 -171 0 -308 -57 -431 -179 -300
-299 -209 -802 177 -979 79 -36 156 -56 217 -56 l38 0 53 -115 c46 -99 53
-121 48 -157 -8 -57 -50 -99 -108 -105 -41 -4 -80 13 -551 236 -278 133 -517
241 -530 241 -14 0 -34 -10 -45 -23 -12 -12 -99 -243 -204 -541 -133 -374
-191 -526 -210 -547 -28 -30 -83 -45 -125 -35 -59 15 -72 44 -263 582 -105
298 -192 529 -204 541 -11 13 -31 23 -45 23 -13 0 -123 -47 -245 -105 -121
-58 -221 -104 -222 -102 -1 1 -9 22 -18 47 -53 142 -185 288 -327 359 -45 22
-89 41 -97 41 -18 0 -27 -22 96 237 56 116 101 222 101 235 0 14 -10 34 -22
45 -13 12 -244 99 -538 203 -283 101 -525 190 -538 198 -76 49 -65 175 19 214
19 9 259 96 534 193 286 102 510 186 523 198 12 11 22 31 22 45 0 13 -108 252
-241 530 -223 471 -240 510 -236 551 7 59 49 101 108 108 40 4 66 -6 269 -102
124 -59 226 -108 227 -108 1 -1 -5 -27 -13 -57 -17 -65 -18 -189 -3 -262 24
-116 106 -254 199 -335 135 -118 323 -170 500 -139 230 41 417 211 486 441 24
81 24 239 0 319 -42 142 -128 261 -244 340 l-70 48 33 92 c18 50 54 152 80
226 27 74 55 145 63 158 32 49 106 66 161 38z m-897 -193 c16 -19 123 -272
117 -277 -11 -10 -130 -58 -134 -55 -2 3 -29 66 -59 141 -35 84 -53 144 -49
155 13 36 36 53 73 53 23 0 43 -7 52 -17z m1663 -278 c14 -13 25 -34 25 -46 0
-20 -111 -302 -146 -371 -8 -16 -33 -35 -60 -48 -26 -11 -47 -20 -49 -20 -1 0
-10 24 -19 53 l-18 52 79 190 c62 147 85 193 104 202 36 19 57 16 84 -12z
m-1181 -178 c144 -72 231 -191 260 -354 l6 -33 -128 0 c-155 0 -180 -10 -272
-105 -69 -71 -123 -105 -165 -105 -33 0 -75 -42 -75 -75 0 -15 11 -37 26 -52
23 -23 31 -25 75 -20 80 10 135 41 223 127 l82 80 108 0 c121 0 118 3 76 -80
-71 -138 -205 -231 -368 -254 -62 -9 -168 10 -240 44 -71 33 -162 114 -199
178 -28 48 -63 151 -63 188 0 24 0 24 115 24 144 0 165 8 264 105 76 74 128
105 175 105 67 0 94 82 41 128 -25 21 -35 23 -79 17 -80 -10 -144 -46 -232
-128 l-82 -77 -91 0 c-58 0 -91 4 -91 11 0 29 59 130 104 177 98 104 198 143
352 139 94 -2 106 -5 178 -40z m2559 -805 c10 -9 17 -29 17 -52 0 -23 -7 -43
-17 -52 -10 -8 -98 -48 -196 -88 -164 -68 -179 -72 -195 -57 -16 15 -76 43
-126 61 -12 4 -16 10 -10 16 5 5 113 52 239 105 232 95 251 100 288 67z
m-3899 -158 c216 -89 212 -87 236 -140 11 -26 20 -47 20 -49 0 -1 -24 -10 -52
-19 l-53 -18 -185 77 c-102 42 -191 82 -197 88 -7 7 -15 27 -19 44 -5 26 -1
37 19 57 15 14 36 26 48 26 13 0 95 -30 183 -66z m3217 -87 c33 -40 122 -97
152 -97 32 0 17 -15 -34 -34 -33 -11 -69 -35 -99 -66 -31 -30 -55 -66 -66 -99
-10 -28 -21 -51 -24 -51 -3 0 -14 23 -24 51 -24 69 -95 140 -166 166 l-53 20
59 27 c77 35 126 84 160 159 l27 61 18 -50 c10 -27 33 -66 50 -87z m-3009
-1274 c24 -9 44 -17 46 -18 1 -1 -7 -23 -18 -48 -12 -28 -32 -53 -48 -61 -63
-33 -208 -86 -233 -86 -51 0 -87 72 -56 113 11 16 228 115 254 116 7 1 32 -6
55 -16z m-43 -578 c29 -7 79 -26 110 -41 74 -36 189 -151 225 -225 30 -62 57
-154 48 -163 -3 -3 -195 -6 -427 -6 -465 0 -444 3 -460 -62 -6 -22 -1 -33 23
-58 l30 -30 420 0 420 0 -9 -41 c-5 -22 -16 -56 -24 -75 l-14 -34 -294 0
c-272 0 -297 -1 -318 -18 -33 -27 -30 -78 5 -109 27 -23 30 -23 263 -23 l236
0 -39 -31 c-22 -18 -70 -47 -109 -65 -221 -106 -485 -38 -636 163 -105 138
-135 339 -73 493 l16 39 300 3 300 3 19 24 c25 30 24 76 -1 101 -19 19 -33 20
-260 20 -132 0 -240 3 -240 8 1 10 78 66 128 91 98 50 253 65 361 36z m2175
-305 c25 -12 51 -30 56 -41 36 -66 262 -629 263 -651 0 -15 -8 -37 -18 -48
-23 -26 -86 -27 -107 -2 -8 9 -75 162 -148 339 l-132 322 18 50 c10 28 19 51
20 51 1 0 22 -9 48 -20z"/>
<path d="M1900 2933 c-33 -12 -50 -37 -50 -74 0 -43 27 -69 70 -69 43 0 70 26
70 69 0 51 -47 90 -90 74z"/>
<path d="M3180 2933 c-33 -12 -50 -37 -50 -74 0 -43 27 -69 70 -69 43 0 70 26
70 69 0 51 -47 90 -90 74z"/>
<path d="M2425 2759 c-82 -26 -144 -74 -180 -140 l-30 -54 0 -495 0 -495 24
-60 c33 -82 116 -164 194 -193 78 -29 176 -29 254 0 78 29 161 111 194 193
l24 60 0 495 0 495 -30 54 c-17 32 -49 68 -75 88 -96 70 -252 92 -375 52z
m262 -159 c70 -39 68 -21 68 -539 0 -457 0 -467 -21 -506 -38 -71 -95 -105
-174 -105 -96 0 -170 60 -190 156 -7 33 -10 204 -8 490 3 477 2 464 61 499 48
28 78 35 153 31 51 -2 82 -9 111 -26z"/>
<path d="M4020 2053 c-33 -12 -50 -37 -50 -73 0 -46 25 -70 72 -70 44 0 68 25
68 72 0 48 -48 86 -90 71z"/>
<path d="M4400 1913 c-33 -12 -50 -37 -50 -73 0 -46 25 -70 72 -70 44 0 68 25
68 72 0 48 -48 86 -90 71z"/>
<path d="M4140 1653 c-33 -12 -50 -37 -50 -73 0 -46 25 -70 72 -70 44 0 68 25
68 72 0 48 -48 86 -90 71z"/>
</g>
</svg>
