<?xml version="1.0" standalone="no"?>
<!DOCTYPE svg PUBLIC "-//W3C//DTD SVG 20010904//EN"
 "http://www.w3.org/TR/2001/REC-SVG-20010904/DTD/svg10.dtd">
<svg version="1.0" xmlns="http://www.w3.org/2000/svg"
 width="512.000000pt" height="512.000000pt" viewBox="0 0 512.000000 512.000000"
 preserveAspectRatio="xMidYMid meet">

<g transform="translate(0.000000,512.000000) scale(0.100000,-0.100000)"
fill="#000000" stroke="none">
<path d="M4312 5102 c-11 -11 -41 -79 -68 -153 -26 -73 -56 -141 -65 -150 -9
-9 -54 -31 -100 -49 -99 -38 -119 -53 -119 -92 0 -50 16 -65 116 -104 56 -22
102 -47 110 -59 8 -12 34 -77 59 -146 46 -126 76 -169 115 -169 40 0 68 43
116 175 26 72 53 137 60 146 8 9 57 33 109 53 96 38 115 54 115 99 0 40 -29
63 -124 98 -51 19 -94 42 -102 54 -7 11 -35 80 -63 153 -27 74 -57 140 -68
147 -26 20 -70 18 -91 -3z m73 -336 c14 -30 41 -68 61 -85 l34 -31 -39 -35
c-22 -20 -48 -56 -58 -80 -10 -25 -21 -45 -24 -45 -4 0 -14 20 -23 44 -10 25
-35 61 -56 80 l-40 36 44 44 c26 26 50 61 57 85 7 23 14 41 15 41 2 0 15 -24
29 -54z"/>
<path d="M1555 4711 c-29 -12 -41 -29 -86 -123 -220 -454 -408 -1008 -454
-1339 -63 -453 65 -852 369 -1154 163 -162 339 -268 577 -346 95 -31 308 -79
351 -79 4 0 8 -270 8 -600 l0 -600 -107 0 c-171 0 -273 -39 -373 -139 -48 -48
-126 -167 -153 -235 -10 -25 9 -73 34 -86 11 -6 336 -10 849 -10 l831 0 24 25
c14 13 25 34 25 46 0 32 -87 184 -139 241 -100 112 -186 149 -366 157 l-130 6
-3 597 -2 597 47 6 c255 36 502 127 698 257 103 67 287 251 354 351 198 297
266 639 202 1012 -62 354 -221 818 -441 1282 -55 116 -60 122 -96 133 -28 8
-245 10 -747 8 l-709 -3 -19 -24 c-25 -30 -24 -76 1 -101 20 -20 33 -20 714
-20 l693 0 61 -132 c206 -451 345 -866 398 -1183 22 -132 22 -344 -1 -450 -52
-249 -153 -435 -329 -610 -211 -210 -495 -336 -846 -376 -164 -18 -456 -6
-606 25 -289 61 -516 177 -694 356 -173 172 -283 384 -325 624 -52 299 28 702
252 1266 71 179 189 447 205 468 7 8 43 12 113 12 89 0 104 2 120 20 25 28 23
76 -4 103 -20 20 -33 22 -149 24 -70 2 -136 -1 -147 -6z m1105 -3692 l0 -641
29 -29 29 -29 151 0 c187 0 237 -15 318 -96 29 -29 53 -57 53 -63 0 -8 -204
-11 -676 -11 l-675 0 18 31 c25 43 112 108 169 125 31 9 95 14 186 14 144 0
188 10 202 45 3 9 6 304 6 656 l0 639 95 0 95 0 0 -641z"/>
<path d="M723 4635 c-27 -11 -36 -27 -76 -137 -72 -197 -58 -179 -186 -228
-81 -32 -111 -57 -111 -95 0 -38 29 -62 114 -94 47 -18 94 -40 105 -49 11 -9
41 -75 67 -147 25 -71 55 -140 67 -152 25 -28 77 -31 100 -5 9 10 39 78 66
152 27 73 58 141 68 150 10 9 45 27 78 40 105 40 123 51 135 80 9 23 9 34 -2
57 -10 22 -33 36 -108 66 -52 20 -100 43 -107 50 -7 6 -35 72 -62 146 -64 171
-83 193 -148 166z m107 -415 l45 -45 -39 -35 c-22 -19 -49 -57 -61 -84 l-22
-50 -25 56 c-14 30 -41 68 -60 83 l-35 28 42 42 c23 23 50 63 60 90 l19 48 15
-44 c9 -24 36 -64 61 -89z"/>
<path d="M1342 3278 c-50 -54 -54 -331 -8 -512 105 -409 444 -694 931 -782
137 -25 469 -25 602 -1 301 56 512 164 691 351 135 143 215 295 254 486 17 79
19 121 15 245 -5 156 -16 209 -47 225 -11 6 -132 10 -289 10 -258 0 -272 -1
-291 -20 -30 -30 -27 -83 6 -109 25 -20 39 -21 252 -21 l224 0 -4 -147 c-6
-158 -27 -252 -85 -368 -92 -183 -278 -347 -487 -430 -277 -109 -664 -125
-962 -40 -117 34 -293 122 -374 188 -137 111 -253 293 -294 457 -19 76 -32
251 -22 303 l7 37 724 0 c517 0 731 3 749 11 51 23 55 103 7 128 -13 8 -269
11 -799 11 l-779 0 -21 -22z"/>
</g>
</svg>
