<?xml version="1.0" standalone="no"?>
<!DOCTYPE svg PUBLIC "-//W3C//DTD SVG 20010904//EN"
 "http://www.w3.org/TR/2001/REC-SVG-20010904/DTD/svg10.dtd">
<svg version="1.0" xmlns="http://www.w3.org/2000/svg"
 width="512.000000pt" height="512.000000pt" viewBox="0 0 512.000000 512.000000"
 preserveAspectRatio="xMidYMid meet">

<g transform="translate(0.000000,512.000000) scale(0.100000,-0.100000)"
fill="#000000" stroke="none">
<path d="M546 5060 c-29 -255 -232 -457 -489 -486 l-57 -7 0 -147 0 -147 57
-7 c257 -29 460 -231 489 -486 l7 -60 147 0 147 0 7 58 c29 256 232 459 486
488 l60 7 0 147 0 147 -61 7 c-252 29 -456 234 -485 486 l-7 60 -147 0 -147 0
-7 -60z m204 -486 c24 -30 70 -76 102 -102 32 -26 58 -49 58 -52 0 -3 -23 -23
-51 -45 -28 -22 -73 -67 -101 -100 -28 -33 -54 -60 -58 -60 -4 0 -32 29 -62
65 -31 36 -76 80 -102 99 -25 19 -46 37 -46 40 0 3 26 27 58 53 32 26 78 72
102 102 25 31 47 56 50 56 3 0 25 -25 50 -56z"/>
<path d="M2445 5108 c-146 -27 -306 -148 -377 -283 -71 -136 -68 -91 -68
-1104 l0 -911 -100 0 -100 0 0 -150 0 -150 100 0 100 0 0 -712 0 -712 256
-536 c141 -294 259 -538 263 -541 10 -11 230 243 299 344 127 186 220 406 273
642 22 97 23 119 26 808 l4 707 100 0 99 0 0 150 0 150 -100 0 -100 0 0 908
c0 1007 2 974 -67 1105 -113 215 -361 332 -608 285z m230 -316 c52 -27 99 -76
124 -132 20 -43 21 -64 21 -597 l0 -553 -260 0 -260 0 0 553 c0 533 1 554 21
597 33 73 93 126 169 151 41 14 142 3 185 -19z m145 -1782 l0 -200 -260 0
-260 0 0 200 0 200 260 0 260 0 0 -200z m0 -1157 c-1 -725 -3 -761 -66 -958
-29 -93 -141 -327 -159 -332 -6 -2 -74 131 -153 294 l-142 298 0 678 0 677
260 0 260 0 0 -657z"/>
<path d="M4270 4092 c0 -48 -38 -180 -67 -235 -36 -67 -154 -185 -220 -220
-55 -29 -187 -67 -235 -67 l-28 0 0 -149 0 -148 58 -7 c176 -20 342 -131 425
-283 29 -54 67 -187 67 -235 l0 -28 149 0 148 0 7 58 c29 256 232 459 486 488
l60 7 0 147 0 147 -61 7 c-252 29 -456 234 -485 486 l-7 60 -148 0 -149 0 0
-28z m200 -518 c24 -30 70 -76 102 -102 32 -26 58 -49 58 -52 0 -3 -23 -23
-51 -45 -28 -22 -73 -67 -101 -100 -28 -33 -54 -60 -58 -60 -4 0 -32 29 -62
65 -31 36 -76 80 -102 99 -25 19 -46 37 -46 40 0 3 26 27 58 53 32 26 78 72
102 102 25 31 47 56 50 56 3 0 25 -25 50 -56z"/>
<path d="M450 2510 l0 -150 150 0 150 0 0 150 0 150 -150 0 -150 0 0 -150z"/>
<path d="M1050 1910 l0 -150 150 0 150 0 0 150 0 150 -150 0 -150 0 0 -150z"/>
</g>
</svg>
