<?xml version="1.0" standalone="no"?>
<!DOCTYPE svg PUBLIC "-//W3C//DTD SVG 20010904//EN"
 "http://www.w3.org/TR/2001/REC-SVG-20010904/DTD/svg10.dtd">
<svg version="1.0" xmlns="http://www.w3.org/2000/svg"
 width="512.000000pt" height="512.000000pt" viewBox="0 0 512.000000 512.000000"
 preserveAspectRatio="xMidYMid meet">

<g transform="translate(0.000000,512.000000) scale(0.100000,-0.100000)"
fill="#000000" stroke="none">
<path d="M2435 4950 c-74 -14 -160 -45 -234 -87 -87 -48 -216 -178 -266 -266
-130 -234 -123 -522 16 -737 78 -120 201 -227 322 -279 l47 -20 0 -156 c0
-152 1 -156 25 -180 20 -21 34 -25 80 -25 l55 0 0 -815 0 -816 25 -24 c32 -33
78 -33 110 0 l25 24 0 816 0 815 55 0 c46 0 60 4 80 25 24 24 25 28 25 180 l0
155 56 25 c119 53 236 155 313 275 140 216 145 514 14 740 -49 83 -180 214
-263 263 -101 58 -206 88 -330 92 -58 2 -127 0 -155 -5z m231 -161 c98 -17
210 -78 288 -155 219 -220 219 -569 -1 -789 -219 -219 -568 -218 -788 3 -270
269 -194 722 148 891 118 58 225 73 353 50z m-26 -1349 l0 -80 -80 0 -80 0 0
80 0 80 80 0 80 0 0 -80z"/>
<path d="M2303 4630 c-12 -5 -30 -21 -39 -35 -16 -25 -16 -32 3 -143 l21 -117
-89 -91 c-74 -76 -89 -97 -89 -123 0 -55 33 -77 136 -91 152 -20 139 -12 203
-135 44 -87 62 -112 84 -119 55 -19 77 0 138 119 64 123 51 115 203 135 103
14 136 36 136 91 0 26 -15 47 -89 123 l-89 91 20 117 c20 111 20 119 4 143 -9
14 -29 31 -44 36 -24 9 -41 3 -140 -48 l-113 -58 -97 52 c-113 59 -129 65
-159 53z m257 -270 c19 0 54 11 77 24 l43 25 -6 -72 -6 -72 41 -40 c23 -21 41
-42 41 -46 0 -4 -25 -10 -55 -14 -59 -7 -89 -31 -114 -94 -8 -17 -17 -31 -21
-31 -4 0 -13 14 -21 31 -25 63 -55 87 -114 94 -30 4 -55 10 -55 14 0 4 18 25
41 46 l41 40 -6 72 -6 72 43 -25 c23 -13 58 -24 77 -24z"/>
<path d="M1235 3670 c-74 -14 -160 -45 -234 -87 -87 -48 -216 -178 -266 -266
-130 -234 -123 -522 16 -737 78 -120 201 -227 322 -279 l47 -20 0 -156 c0
-152 1 -156 25 -180 20 -21 34 -25 80 -25 l55 0 0 -855 0 -856 25 -24 c32 -33
78 -33 110 0 l25 24 0 856 0 855 55 0 c46 0 60 4 80 25 24 24 25 28 25 180 l0
156 47 20 c121 52 244 159 322 279 140 216 145 513 14 740 -49 83 -180 214
-263 263 -101 58 -206 88 -330 92 -58 2 -127 0 -155 -5z m295 -178 c79 -27
129 -55 181 -97 49 -41 119 -124 119 -141 0 -22 -159 -57 -260 -57 -78 -1
-119 6 -230 35 -134 36 -220 52 -355 66 l-69 7 59 58 c66 65 185 129 270 146
73 15 220 6 285 -17z m-475 -363 c50 -6 160 -29 245 -51 138 -37 167 -41 270
-41 90 1 134 6 205 25 50 14 98 28 107 32 23 11 33 -26 33 -128 0 -78 -1 -80
-30 -97 -16 -10 -70 -30 -120 -44 -134 -40 -251 -39 -410 4 -172 47 -261 61
-419 68 l-139 6 6 86 c3 47 11 101 17 119 12 32 12 32 78 32 37 0 108 -5 157
-11z m0 -400 c50 -6 160 -29 245 -51 139 -37 167 -41 270 -41 83 1 136 6 190
21 41 11 76 19 78 17 1 -1 -15 -26 -37 -55 -213 -283 -639 -292 -869 -18 -38
45 -82 116 -82 133 0 9 109 6 205 -6z m385 -569 l0 -80 -80 0 -80 0 0 80 0 80
80 0 80 0 0 -80z"/>
<path d="M3715 3430 c-74 -14 -160 -45 -234 -87 -87 -48 -216 -178 -266 -266
-130 -234 -123 -522 16 -737 78 -120 201 -227 322 -279 l47 -20 0 -156 c0
-152 1 -156 25 -180 20 -21 34 -25 80 -25 l55 0 0 -615 0 -616 25 -24 c15 -16
36 -25 55 -25 19 0 40 9 55 25 l25 24 0 616 0 615 55 0 c46 0 60 4 80 25 24
24 25 28 25 180 l0 155 56 25 c119 53 236 155 313 275 140 216 145 514 14 740
-49 83 -180 214 -263 263 -101 58 -206 88 -330 92 -58 2 -127 0 -155 -5z m299
-179 c70 -25 128 -57 182 -103 l40 -33 -76 0 c-90 -1 -136 -21 -218 -99 -50
-47 -58 -51 -102 -51 -44 0 -52 4 -102 51 -82 78 -128 98 -218 99 l-75 0 35
31 c62 56 177 110 270 128 54 10 206 -3 264 -23z m-392 -347 c92 -82 128 -99
218 -99 90 0 136 21 218 99 50 47 58 51 101 51 44 0 53 -5 106 -54 33 -29 74
-60 91 -69 37 -17 44 -35 44 -112 0 -77 -7 -95 -44 -112 -17 -9 -58 -40 -91
-69 -53 -49 -62 -54 -105 -54 -42 0 -52 5 -105 53 -86 79 -125 97 -215 97 -90
0 -136 -21 -218 -99 -50 -47 -58 -51 -101 -51 -44 0 -53 5 -106 54 -33 29 -74
60 -91 69 -37 17 -44 35 -44 112 0 77 7 95 44 112 17 9 56 38 86 65 61 56 71
61 117 62 26 1 45 -11 95 -55z m322 -482 c80 -76 126 -96 216 -97 l75 0 -30
-26 c-52 -45 -125 -87 -194 -111 -52 -18 -88 -23 -171 -23 -83 0 -119 5 -171
23 -69 24 -142 66 -194 111 l-30 26 75 0 c90 1 126 17 219 100 61 55 66 57
108 52 35 -4 54 -14 97 -55z m-24 -502 l0 -80 -80 0 -80 0 0 80 0 80 80 0 80
0 0 -80z"/>
</g>
</svg>
