<?xml version="1.0" standalone="no"?>
<!DOCTYPE svg PUBLIC "-//W3C//DTD SVG 20010904//EN"
 "http://www.w3.org/TR/2001/REC-SVG-20010904/DTD/svg10.dtd">
<svg version="1.0" xmlns="http://www.w3.org/2000/svg"
 width="512.000000pt" height="512.000000pt" viewBox="0 0 512.000000 512.000000"
 preserveAspectRatio="xMidYMid meet">

<g transform="translate(0.000000,512.000000) scale(0.100000,-0.100000)"
fill="#000000" stroke="none">
<path d="M958 5104 c-51 -27 -58 -57 -58 -242 l0 -169 -52 -34 c-90 -59 -92
-66 -96 -346 l-4 -242 -288 -3 c-273 -3 -290 -4 -316 -24 -63 -47 -69 -63 -72
-219 -3 -127 -1 -147 17 -182 29 -59 63 -77 151 -83 l75 -5 3 -1287 2 -1287
26 -20 c36 -28 60 -26 95 8 l29 29 0 1281 0 1281 2090 0 2090 0 0 -1600 0
-1600 -329 0 -329 0 -6 48 c-6 45 -186 1955 -186 1972 0 4 24 11 53 15 63 8
120 43 143 87 10 20 19 67 22 120 l5 88 39 11 c50 13 110 73 126 125 7 23 12
96 12 166 0 112 -2 129 -25 174 -27 54 -60 84 -114 102 -25 9 -202 12 -638 12
-651 0 -644 1 -701 -53 -53 -49 -62 -85 -62 -243 0 -164 8 -192 66 -243 18
-17 51 -35 73 -42 l39 -12 4 -93 c2 -75 7 -98 24 -121 33 -44 80 -71 139 -78
52 -7 54 -8 50 -34 -3 -14 -46 -465 -95 -1001 -50 -536 -93 -981 -95 -987 -6
-19 -604 -19 -610 -1 -2 7 -45 452 -95 988 -49 536 -92 987 -95 1001 -4 26 -2
27 50 34 59 7 106 34 139 78 17 23 22 46 24 121 l4 93 39 12 c22 7 55 25 73
42 58 51 66 79 66 243 0 158 -9 194 -62 243 -57 54 -50 53 -699 53 -446 0
-612 -3 -643 -12 -50 -15 -109 -74 -124 -126 -16 -52 -15 -263 0 -316 16 -52
76 -112 126 -125 l39 -11 5 -89 c8 -137 51 -192 163 -206 30 -3 55 -10 55 -14
0 -17 -180 -1929 -186 -1974 l-6 -47 -328 0 -329 0 -3 171 c-3 166 -4 171 -27
190 -30 25 -76 24 -101 -1 -19 -19 -20 -33 -20 -220 l0 -199 31 -35 c17 -20
47 -40 67 -46 22 -6 175 -10 370 -10 313 0 333 -1 328 -17 -5 -18 -10 -104 -7
-135 2 -28 38 -58 69 -58 45 0 72 37 78 106 3 33 7 69 10 81 l4 23 424 0 424
0 7 -82 c6 -66 12 -86 31 -105 30 -30 69 -29 101 3 24 25 25 29 19 105 l-7 79
291 0 291 0 -7 -79 c-6 -76 -5 -80 19 -105 32 -32 71 -33 101 -3 19 19 25 39
31 105 l7 82 424 0 424 0 4 -23 c3 -12 7 -48 10 -81 6 -69 33 -106 78 -106 31
0 67 30 69 58 3 31 -2 117 -7 135 -5 16 15 17 328 17 188 0 348 4 369 10 19 5
48 24 65 41 l29 30 5 1632 5 1632 75 5 c88 6 122 24 151 83 18 35 20 55 17
182 -3 156 -9 172 -72 219 -26 20 -42 21 -357 24 l-329 3 -25 -25 c-32 -32
-32 -70 0 -101 l24 -25 306 0 305 0 0 -105 0 -105 -2340 0 -2340 0 0 105 0
105 1884 0 1883 0 27 21 c34 27 35 71 1 104 l-24 25 -701 0 -700 0 0 233 c0
222 -1 235 -22 277 -15 30 -40 57 -73 78 l-50 34 -5 184 -5 184 -28 27 -27 28
-181 3 -180 3 -34 -34 -35 -35 0 -175 c0 -193 3 -183 -69 -227 -75 -44 -81
-70 -81 -343 l0 -237 -130 0 -130 0 0 241 c0 282 -2 292 -86 345 l-52 34 -4
177 c-4 255 -3 253 -251 253 -124 -1 -168 -4 -189 -16z m294 -301 c3 -191 10
-211 91 -255 l42 -23 3 -228 2 -227 -245 0 -245 0 0 219 c0 242 -4 227 68 270
72 43 82 75 82 255 l0 156 99 0 100 0 3 -167z m1040 3 c3 -189 6 -196 96 -256
l52 -34 0 -223 0 -223 -245 0 -245 0 0 224 0 223 52 34 c84 55 92 77 96 262
l4 157 93 0 94 0 3 -164z m-1 -1686 c17 -10 19 -22 19 -133 0 -82 -4 -127 -12
-135 -9 -9 -157 -12 -604 -12 -525 0 -594 2 -608 16 -24 23 -23 230 1 256 15
17 47 18 600 18 384 0 591 -4 604 -10z m1741 -7 c26 -23 27 -227 1 -255 -15
-17 -47 -18 -608 -18 -446 0 -594 3 -603 12 -8 8 -12 53 -12 135 0 106 2 123
18 132 11 7 223 10 601 11 530 0 586 -2 603 -17z m-1902 -492 c0 -54 -4 -70
-16 -75 -9 -3 -201 -6 -428 -6 -307 0 -415 3 -424 12 -7 7 -12 39 -12 75 l0
63 440 0 440 0 0 -69z m1740 6 c0 -36 -5 -68 -12 -75 -9 -9 -117 -12 -424 -12
-227 0 -419 3 -428 6 -12 5 -16 21 -16 75 l0 69 440 0 440 0 0 -63z m-1955
-269 c9 -57 146 -1541 142 -1545 -2 -2 -168 -2 -368 -1 l-365 3 73 765 c39
421 72 775 73 788 l0 22 220 0 219 0 6 -32z m1735 10 c1 -13 34 -367 73 -788
l73 -765 -365 -3 c-200 -1 -366 -1 -368 1 -4 4 133 1489 142 1545 l6 32 219 0
220 0 0 -22z m-1562 -1840 c7 -73 12 -141 12 -150 0 -17 -26 -18 -404 -18
-223 0 -407 3 -409 8 -3 4 1 65 9 137 7 72 13 136 13 143 1 9 85 12 384 12
l384 0 11 -132z m1723 120 c0 -7 6 -71 13 -143 8 -72 12 -133 9 -137 -2 -5
-186 -8 -409 -8 -378 0 -404 1 -404 18 0 9 5 77 12 150 l11 132 384 0 c299 0
383 -3 384 -12z"/>
</g>
</svg>
