<?xml version="1.0" standalone="no"?>
<!DOCTYPE svg PUBLIC "-//W3C//DTD SVG 20010904//EN"
 "http://www.w3.org/TR/2001/REC-SVG-20010904/DTD/svg10.dtd">
<svg version="1.0" xmlns="http://www.w3.org/2000/svg"
 width="512.000000pt" height="512.000000pt" viewBox="0 0 512.000000 512.000000"
 preserveAspectRatio="xMidYMid meet">

<g transform="translate(0.000000,512.000000) scale(0.100000,-0.100000)"
fill="#000000" stroke="none">
<path d="M440 5104 c-279 -59 -474 -308 -433 -550 33 -189 180 -341 364 -375
166 -30 335 82 385 255 39 140 -18 270 -148 335 -103 52 -206 38 -244 -31 -19
-34 -17 -72 6 -101 27 -34 63 -41 105 -21 33 15 36 15 67 -3 72 -42 72 -141
-1 -214 -68 -68 -146 -72 -241 -11 -74 47 -130 150 -130 238 0 95 85 216 188
268 154 78 310 71 442 -19 36 -25 76 -45 88 -45 29 0 82 51 82 80 0 51 -54
105 -155 154 -114 56 -241 69 -375 40z"/>
<path d="M1819 5091 c-26 -26 -29 -36 -29 -90 0 -80 12 -109 54 -126 39 -16
60 -12 94 18 19 18 22 30 22 99 0 70 -3 82 -25 103 -34 35 -78 33 -116 -4z"/>
<path d="M3185 5095 c-22 -21 -25 -33 -25 -103 0 -69 3 -81 23 -99 33 -30 54
-34 93 -18 42 17 54 46 54 126 0 54 -3 64 -29 90 -38 37 -82 39 -116 4z"/>
<path d="M4425 5108 c-123 -23 -275 -128 -275 -189 0 -37 48 -89 82 -89 12 0
52 20 88 45 68 47 154 75 225 75 58 0 158 -26 217 -56 103 -52 188 -173 188
-268 0 -88 -56 -191 -130 -238 -95 -61 -173 -57 -241 11 -73 73 -73 172 -1
214 31 18 34 18 67 3 42 -20 78 -13 105 21 24 31 25 66 4 103 -40 67 -137 80
-239 31 -130 -61 -190 -196 -151 -337 36 -125 131 -218 256 -250 262 -66 541
219 493 502 -49 286 -370 482 -688 422z"/>
<path d="M2505 4925 c-38 -37 -37 -88 1 -122 80 -73 186 46 109 122 -15 16
-36 25 -55 25 -19 0 -40 -9 -55 -25z"/>
<path d="M1562 4837 c-31 -33 -29 -87 4 -118 22 -21 35 -24 101 -24 70 0 76 2
99 28 31 37 31 81 -1 112 -21 22 -33 25 -103 25 -69 0 -81 -3 -100 -23z"/>
<path d="M1999 4850 c-9 -5 -22 -23 -29 -40 -16 -39 1 -85 41 -105 34 -18 125
-19 159 -2 52 26 62 95 20 137 -17 17 -33 20 -97 20 -43 0 -85 -5 -94 -10z"/>
<path d="M2930 4840 c-42 -42 -32 -111 20 -137 34 -17 125 -16 159 2 40 20 57
66 41 105 -17 42 -37 50 -124 50 -62 0 -80 -4 -96 -20z"/>
<path d="M3355 4835 c-32 -31 -32 -75 -1 -112 23 -26 29 -28 99 -28 66 0 79 3
101 24 34 32 36 88 3 119 -20 19 -35 22 -101 22 -68 0 -80 -3 -101 -25z"/>
<path d="M1832 4683 c-37 -15 -57 -146 -30 -196 28 -53 92 -64 133 -22 22 21
25 33 25 100 0 67 -3 79 -25 100 -23 24 -69 32 -103 18z"/>
<path d="M3185 4665 c-22 -21 -25 -33 -25 -100 0 -67 3 -79 25 -100 16 -17 35
-25 57 -25 61 1 88 40 88 125 0 85 -27 124 -88 125 -22 0 -41 -8 -57 -25z"/>
<path d="M2759 4581 c-32 -33 -36 -58 -14 -100 37 -73 155 -43 155 39 0 40
-47 90 -85 90 -16 0 -38 -12 -56 -29z"/>
<path d="M2415 4495 c-35 -34 -33 -78 4 -116 39 -38 74 -38 113 1 26 27 30 36
25 68 -12 70 -92 97 -142 47z"/>
<path d="M1080 4499 c-33 -13 -68 -47 -87 -83 -64 -123 -546 -1576 -589 -1776
-22 -106 -18 -271 10 -383 47 -183 163 -362 304 -466 l70 -52 -60 -232 c-33
-128 -93 -357 -132 -510 l-72 -278 -109 -2 c-101 -2 -116 -5 -178 -34 -114
-54 -212 -172 -233 -279 -7 -37 17 -90 43 -98 67 -21 1188 -306 1202 -306 64
0 102 101 84 225 -22 156 -123 286 -264 341 -24 10 -45 18 -47 20 -4 2 257
1015 264 1026 3 5 22 8 42 8 86 0 244 53 356 118 76 45 240 208 285 284 71
122 90 187 170 578 125 613 266 1432 257 1488 -8 51 -42 97 -88 121 -52 26
-1123 301 -1170 300 -18 0 -44 -5 -58 -10z m620 -300 c283 -73 518 -135 522
-138 3 -3 -4 -71 -17 -150 -20 -125 -26 -146 -46 -162 -81 -62 -282 -199 -346
-235 -216 -123 -464 -161 -708 -109 -104 22 -246 67 -251 80 -5 11 120 386
227 683 57 159 64 173 83 168 12 -3 253 -65 536 -137z m385 -980 c-77 -410
-162 -830 -185 -917 -66 -240 -249 -423 -490 -488 -87 -23 -252 -23 -340 0
-176 47 -355 191 -433 346 -72 146 -95 316 -61 460 15 67 53 191 155 511 l59
187 93 -30 c178 -57 267 -72 447 -72 142 0 177 3 250 23 157 42 301 111 474
227 44 29 81 52 83 51 1 -2 -22 -136 -52 -298z m-1055 -1578 c50 -12 75 -23
74 -32 -2 -16 -246 -972 -250 -978 -4 -5 -147 30 -157 39 -4 4 49 225 118 492
69 267 125 488 125 491 0 9 4 9 90 -12z m-299 -1160 c147 -37 286 -79 310 -92
69 -38 153 -180 110 -186 -18 -3 -928 231 -938 241 -11 11 38 55 91 81 78 39
125 34 427 -44z"/>
<path d="M772 2767 c-46 -49 -76 -322 -48 -440 19 -80 68 -182 95 -197 30 -16
66 -12 94 10 40 32 41 62 7 140 -40 90 -46 166 -26 299 9 58 16 119 16 136 0
68 -91 102 -138 52z"/>
<path d="M3381 4364 c-312 -81 -568 -153 -587 -164 -18 -12 -42 -40 -55 -66
-25 -53 -25 -59 22 -344 71 -433 238 -1309 288 -1508 46 -185 101 -282 236
-417 82 -82 117 -109 190 -147 105 -54 200 -85 291 -94 35 -4 66 -10 69 -13 6
-11 266 -1023 263 -1026 -2 -1 -23 -9 -47 -19 -141 -55 -242 -185 -264 -341
-14 -93 5 -179 45 -208 27 -20 29 -21 105 -3 191 45 1120 287 1140 297 35 19
48 62 33 112 -54 182 -213 299 -405 299 -45 -1 -87 -2 -94 -4 -10 -2 -50 138
-146 507 -126 484 -132 511 -115 525 10 8 44 35 75 60 127 100 237 275 281
448 28 112 32 271 10 379 -31 145 -390 1248 -530 1628 -57 154 -74 185 -119
219 -56 42 -92 35 -686 -120z m664 -211 c109 -304 226 -657 221 -668 -4 -13
-143 -57 -256 -82 -118 -27 -343 -24 -444 5 -100 29 -197 70 -283 121 -59 34
-311 208 -337 232 -9 8 -56 291 -50 298 2 2 149 41 326 87 178 46 415 108 528
138 113 30 210 54 216 55 6 1 42 -83 79 -186z m-1002 -671 c379 -277 766 -339
1205 -193 l82 27 59 -185 c88 -277 138 -438 157 -511 21 -84 22 -234 0 -324
-93 -388 -508 -614 -886 -482 -105 36 -175 81 -262 168 -63 63 -86 95 -122
170 -56 117 -86 249 -221 968 -36 190 -68 357 -71 373 -3 15 -3 27 1 27 3 0
29 -17 58 -38z m1137 -1828 c0 -3 56 -225 125 -492 69 -267 122 -489 118 -492
-10 -9 -153 -44 -157 -39 -2 2 -22 78 -44 169 -23 91 -80 313 -126 493 -57
222 -81 329 -73 331 128 34 157 39 157 30z m636 -1129 c53 -26 102 -70 91 -81
-8 -8 -915 -243 -938 -244 -14 0 -15 5 -7 38 14 55 71 128 120 153 24 12 160
53 303 90 299 78 353 83 431 44z"/>
<path d="M4230 2765 c-25 -26 -25 -32 0 -220 15 -113 8 -179 -31 -266 -33 -77
-32 -108 8 -139 76 -60 148 12 190 190 27 116 -3 388 -49 437 -30 32 -86 32
-118 -2z"/>
<path d="M2973 1775 c-141 -43 -264 -187 -308 -360 -19 -76 -19 -234 0 -308
45 -172 175 -321 332 -380 45 -17 80 -22 158 -22 87 0 107 4 156 26 112 53
175 138 199 269 20 112 -5 233 -66 322 -61 88 -185 138 -290 119 -128 -24
-214 -112 -214 -220 0 -53 15 -89 53 -128 79 -83 187 5 130 105 -21 37 -9 57
44 71 75 21 139 -21 169 -111 33 -100 -5 -225 -81 -263 -63 -32 -165 -28 -233
9 -73 41 -129 100 -166 176 -29 61 -31 71 -31 180 0 96 4 125 23 171 31 77 88
139 153 168 94 40 103 46 118 72 17 30 9 71 -19 99 -23 23 -65 25 -127 5z"/>
<path d="M1893 1620 c-12 -5 -29 -20 -39 -35 -27 -41 -12 -77 59 -147 86 -85
111 -148 105 -268 -6 -133 -68 -238 -170 -291 -111 -57 -262 -13 -304 87 -30
71 -7 176 46 214 37 27 66 25 95 -5 21 -20 25 -34 25 -85 0 -73 9 -93 50 -110
24 -10 36 -10 60 0 42 17 60 57 60 132 0 152 -119 268 -262 255 -101 -9 -175
-67 -227 -177 -22 -47 -26 -69 -26 -150 0 -77 4 -104 22 -143 33 -71 113 -150
186 -183 54 -25 74 -28 157 -29 75 0 108 5 155 23 119 45 224 156 276 290 31
80 38 246 14 327 -34 117 -97 209 -189 277 -41 29 -57 32 -93 18z"/>
</g>
</svg>
