<?xml version="1.0" standalone="no"?>
<!DOCTYPE svg PUBLIC "-//W3C//DTD SVG 20010904//EN"
 "http://www.w3.org/TR/2001/REC-SVG-20010904/DTD/svg10.dtd">
<svg version="1.0" xmlns="http://www.w3.org/2000/svg"
 width="512.000000pt" height="512.000000pt" viewBox="0 0 512.000000 512.000000"
 preserveAspectRatio="xMidYMid meet">

<g transform="translate(0.000000,512.000000) scale(0.100000,-0.100000)"
fill="#000000" stroke="none">
<path d="M1291 4704 c-117 -185 -215 -342 -218 -350 -3 -8 73 -119 182 -265
102 -138 185 -252 183 -254 -2 -1 -28 -10 -58 -20 -157 -50 -394 -190 -542
-322 -442 -393 -642 -998 -522 -1581 42 -205 150 -453 269 -617 310 -430 770
-680 1290 -702 l140 -6 70 -66 c217 -207 482 -345 795 -413 91 -19 134 -22
325 -22 191 0 234 3 325 22 536 117 968 468 1181 961 51 120 85 237 111 386
27 158 21 435 -12 590 -138 646 -634 1141 -1278 1274 -153 32 -149 34 -85 -61
l55 -83 82 -22 c540 -143 942 -560 1073 -1113 33 -141 42 -397 19 -545 -39
-259 -139 -491 -296 -692 -237 -304 -567 -499 -947 -559 -143 -22 -417 -15
-543 15 -237 55 -421 143 -605 286 -297 233 -491 565 -551 942 -20 133 -15
407 11 523 71 317 225 589 452 800 78 71 234 182 305 216 l37 17 57 -37 c58
-39 214 -186 214 -202 0 -5 -31 -24 -69 -41 -163 -76 -361 -244 -475 -402
-101 -141 -182 -329 -217 -506 -18 -90 -18 -378 -1 -460 8 -33 25 -97 38 -143
117 -391 436 -712 832 -836 260 -82 581 -72 832 24 680 262 1000 1054 694
1719 -90 195 -261 395 -441 515 -141 93 -328 172 -455 191 -24 4 -49 10 -55
13 -5 4 -38 61 -72 127 -85 165 -176 290 -306 420 -169 168 -358 292 -567 373
-54 20 -98 40 -98 44 0 5 267 370 361 493 4 6 -87 160 -210 355 l-218 345
-440 3 -439 2 -213 -336z m579 -49 l0 -235 -286 0 c-213 0 -285 3 -282 12 2 6
67 112 144 234 l139 223 143 1 142 0 0 -235z m567 13 c77 -123 143 -229 147
-235 6 -10 -53 -13 -278 -13 l-286 0 0 235 0 235 139 0 138 0 140 -222z m-919
-450 c11 -29 52 -138 91 -242 39 -104 70 -191 68 -192 -2 -3 -186 239 -340
448 l-29 38 95 0 96 0 19 -52z m702 45 c0 -23 -275 -742 -281 -736 -4 5 -67
168 -140 363 -72 195 -134 361 -136 368 -4 9 55 12 276 12 155 0 281 -3 281
-7z m350 2 c0 -4 -344 -471 -362 -490 -5 -5 4 26 20 70 80 215 154 410 158
417 5 8 184 12 184 3z m-900 -733 c67 -90 119 -166 117 -169 -3 -2 -48 -13
-101 -24 -612 -125 -1045 -682 -1013 -1303 10 -188 53 -349 140 -520 129 -253
361 -472 621 -585 50 -22 114 -46 142 -54 l52 -15 -42 91 -41 90 -70 32 c-229
105 -445 320 -550 548 -303 657 83 1421 795 1573 100 21 321 24 415 6 76 -15
235 -63 235 -71 -1 -3 -43 -34 -95 -69 -337 -226 -583 -595 -677 -1019 -19
-85 -22 -128 -22 -328 0 -200 3 -243 22 -328 45 -204 124 -395 227 -553 31
-48 54 -88 53 -90 -9 -9 -204 19 -298 42 -271 68 -505 200 -705 399 -218 218
-361 490 -422 800 -24 124 -24 403 0 535 99 533 478 978 987 1156 52 19 98 30
101 26 4 -4 62 -81 129 -170z m767 147 c326 -115 590 -321 776 -609 91 -142
146 -268 190 -435 40 -153 50 -259 44 -445 -8 -236 -54 -415 -160 -626 -140
-277 -405 -537 -686 -673 -47 -23 -90 -41 -96 -41 -6 0 -26 15 -44 34 l-33 34
98 51 c332 171 561 466 655 841 21 83 24 119 24 285 0 177 -2 197 -29 300 -84
322 -260 574 -528 755 -144 97 -305 163 -471 195 -45 8 -82 17 -84 19 -3 3
248 346 253 346 1 0 42 -14 91 -31z m1214 -999 c167 -56 288 -130 419 -256
150 -144 255 -324 306 -521 35 -133 44 -340 20 -467 -91 -481 -434 -824 -911
-912 -130 -24 -336 -15 -467 19 -109 29 -242 87 -336 149 l-63 41 99 52 c158
83 248 150 392 295 246 246 387 506 462 850 19 91 22 134 22 325 0 190 -3 234
-22 322 -12 56 -25 109 -28 117 -8 22 5 20 107 -14z m-702 -92 c49 -103 76
-186 97 -297 23 -121 15 -353 -16 -471 -85 -322 -308 -595 -603 -736 -39 -19
-77 -34 -83 -34 -16 0 -89 161 -118 263 -114 392 -6 809 283 1098 89 90 216
179 323 229 35 16 66 29 70 30 4 0 25 -37 47 -82z"/>
<path d="M1395 3542 c-192 -81 -376 -213 -507 -365 l-59 -68 57 -45 c57 -44
74 -52 74 -35 0 17 159 170 239 230 84 62 290 171 323 171 9 0 20 5 23 10 9
15 -34 140 -48 140 -7 0 -52 -18 -102 -38z"/>
<path d="M684 2869 c-19 -39 -32 -75 -27 -79 4 -5 35 -19 68 -33 l60 -25 32
70 c18 39 33 72 33 73 0 6 -110 65 -120 65 -5 0 -26 -32 -46 -71z"/>
<path d="M325 4530 l-50 -50 53 -53 52 -52 52 52 53 53 -50 50 c-27 27 -52 50
-55 50 -3 0 -28 -23 -55 -50z"/>
<path d="M587 4532 l-47 -48 55 -54 55 -55 52 53 53 52 -50 50 c-27 27 -54 50
-60 50 -6 0 -32 -22 -58 -48z"/>
<path d="M3185 4530 l-50 -50 53 -53 52 -52 52 52 53 53 -50 50 c-27 27 -52
50 -55 50 -3 0 -28 -23 -55 -50z"/>
<path d="M3445 4530 l-50 -50 53 -53 52 -52 52 52 53 53 -50 50 c-27 27 -52
50 -55 50 -3 0 -28 -23 -55 -50z"/>
<path d="M325 4270 l-49 -50 54 -55 54 -55 53 52 53 52 -52 53 c-29 29 -55 53
-58 53 -3 0 -28 -23 -55 -50z"/>
<path d="M592 4267 l-52 -53 53 -52 53 -52 52 53 52 53 -53 52 -53 52 -52 -53z"/>
<path d="M3182 4267 l-52 -53 53 -52 53 -52 52 53 52 53 -53 52 -53 52 -52
-53z"/>
<path d="M3452 4267 l-52 -53 53 -52 53 -52 52 53 52 53 -53 52 -53 52 -52
-53z"/>
<path d="M2415 2843 c-111 -78 -278 -249 -353 -361 -72 -108 -138 -240 -126
-251 13 -11 124 -54 128 -50 2 2 21 38 41 79 61 121 132 219 234 320 53 53
129 118 169 145 39 26 72 53 72 58 0 19 -62 117 -73 117 -7 0 -48 -26 -92 -57z"/>
<path d="M1861 2023 c-5 -27 -13 -62 -16 -79 l-6 -32 58 -6 c32 -4 65 -9 74
-12 13 -4 19 8 29 60 7 36 11 69 10 73 -1 7 -112 43 -132 43 -3 0 -11 -21 -17
-47z"/>
</g>
</svg>
